<svg width="403" height="81" viewBox="0 0 403 81" fill="none" xmlns="http://www.w3.org/2000/svg">
<path d="M40.05 0.625C44.3833 0.625 48.6333 1.125 52.8 2.125C57.05 3.125 61.0917 4.625 64.925 6.625C68.7583 8.54167 72.1333 11.125 75.05 14.375C78.05 17.625 79.675 21.5 79.925 26V31.25V71.125C79.425 76.125 76.675 78.8333 71.675 79.25C69.3417 79.25 67.3 78.5 65.55 77C63.8833 75.4167 63.05 73.4583 63.05 71.125V29.875C62.8833 27.2917 61.8833 25.1667 60.05 23.5C58.3 21.75 56.3 20.375 54.05 19.375C51.8833 18.375 49.5917 17.625 47.175 17.125C44.8417 16.625 42.4667 16.375 40.05 16.375C37.6333 16.375 35.2167 16.625 32.8 17.125C30.4667 17.625 28.175 18.375 25.925 19.375C23.7583 20.375 21.7583 21.75 19.925 23.5C18.175 25.1667 17.2167 27.2917 17.05 29.875V71.125C16.6333 76.125 13.925 78.8333 8.925 79.25C6.59167 79.25 4.55 78.5 2.8 77C1.13334 75.4167 0.300003 73.4583 0.300003 71.125V31.25V26C0.550003 21.5 2.13334 17.625 5.05 14.375C7.96667 11.125 11.3417 8.54167 15.175 6.625C19.0083 4.625 23.0083 3.125 27.175 2.125C31.425 1.125 35.7167 0.625 40.05 0.625ZM136.975 20.75C133.808 20.9167 131.142 22.125 128.975 24.375C126.892 26.625 125.392 29.2083 124.475 32.125C123.558 34.9583 123.1 37.875 123.1 40.875C123.1 43.875 123.517 46.8333 124.35 49.75C125.267 52.6667 126.808 55.25 128.975 57.5C131.142 59.6667 133.808 60.8333 136.975 61H178.225C183.475 61.5 186.35 64.375 186.85 69.625C186.767 71.9583 185.892 73.9167 184.225 75.5C182.558 77 180.558 77.75 178.225 77.75H138.35H132.6C126.767 77.4167 121.975 75.2083 118.225 71.125C114.475 66.9583 111.767 62.25 110.1 57C108.517 51.75 107.725 46.375 107.725 40.875C107.725 36.7917 108.183 32.75 109.1 28.75C110.017 24.75 111.433 20.9583 113.35 17.375C115.35 13.7083 117.975 10.5833 121.225 8C124.558 5.41667 128.35 4.08333 132.6 4H134.975H178.225C183.475 4.5 186.35 7.375 186.85 12.625C186.85 14.9583 185.975 16.9167 184.225 18.5C182.558 20 180.558 20.75 178.225 20.75H136.975ZM219.775 2C222.025 2.08333 223.942 2.91667 225.525 4.5C227.108 6 227.942 7.875 228.025 10.125V71.375C227.525 76.375 224.775 79.0833 219.775 79.5C217.442 79.5 215.4 78.75 213.65 77.25C211.983 75.6667 211.15 73.7083 211.15 71.375V10.125C211.233 7.79167 212.108 5.875 213.775 4.375C215.442 2.79167 217.442 2 219.775 2ZM241.15 24C246.733 20.25 254.275 16.4583 263.775 12.625L284.275 3.875C285.192 3.45833 286.192 3.20833 287.275 3.125C289.608 2.95833 291.608 3.66667 293.275 5.25C294.942 6.75 295.775 8.70833 295.775 11.125C295.775 13.875 295.192 15.9167 294.025 17.25C292.942 18.5 291.525 19.5417 289.775 20.375L272.275 27C268.858 28.3333 265.608 29.6667 262.525 31C259.525 32.25 256.775 33.7083 254.275 35.375C251.775 36.875 250.442 38.5833 250.275 40.5C250.442 42.3333 251.775 44.0417 254.275 45.625C256.775 47.2917 259.525 48.7917 262.525 50.125C265.608 51.375 268.858 52.6667 272.275 54L291.775 61.125C293.525 61.9583 294.942 63.0417 296.025 64.375C297.192 65.625 297.775 67.625 297.775 70.375C297.775 72.7917 296.942 74.7917 295.275 76.375C293.608 77.875 291.608 78.5417 289.275 78.375C288.192 78.2917 287.192 78.0417 286.275 77.625L263.775 68.375C254.275 64.5417 246.692 60.75 241.025 57C235.442 53.1667 232.608 47.6667 232.525 40.5C232.608 33.3333 235.483 27.8333 241.15 24ZM363.075 80.625C358.742 80.625 354.45 80.125 350.2 79.125C346.033 78.125 342.033 76.6667 338.2 74.75C334.367 72.75 330.992 70.125 328.075 66.875C325.158 63.625 323.575 59.75 323.325 55.25V50V10.125C323.325 7.79167 324.158 5.875 325.825 4.375C327.575 2.79167 329.617 2 331.95 2C336.95 2.41667 339.658 5.125 340.075 10.125V51.375C340.242 53.9583 341.2 56.125 342.95 57.875C344.783 59.5417 346.783 60.875 348.95 61.875C351.2 62.875 353.492 63.625 355.825 64.125C358.242 64.625 360.658 64.875 363.075 64.875C365.492 64.875 367.867 64.625 370.2 64.125C372.617 63.625 374.908 62.875 377.075 61.875C379.325 60.875 381.325 59.5417 383.075 57.875C384.908 56.125 385.908 53.9583 386.075 51.375V10.125C386.075 7.79167 386.908 5.875 388.575 4.375C390.325 2.79167 392.367 2 394.7 2C399.7 2.41667 402.45 5.125 402.95 10.125V50V55.25C402.7 59.75 401.075 63.625 398.075 66.875C395.158 70.125 391.783 72.75 387.95 74.75C384.117 76.6667 380.075 78.125 375.825 79.125C371.658 80.125 367.408 80.625 363.075 80.625Z" fill="#F5F5F5"/>
</svg>
