<svg width="155" height="84" viewBox="0 0 155 84" fill="none" xmlns="http://www.w3.org/2000/svg">
<path d="M26.2 61.125V42C26.2 41.1667 25.7833 40.75 24.95 40.75H6.95C5.11666 40.75 3.53333 40.125 2.2 38.875C0.949997 37.5417 0.324997 35.9583 0.324997 34.125C0.324997 32.2917 0.949997 30.75 2.2 29.5C3.53333 28.1667 5.11666 27.5 6.95 27.5H24.95C25.7833 27.5 26.2 27.0833 26.2 26.25V7.125C26.2 5.20833 26.8667 3.58333 28.2 2.25C29.5333 0.916667 31.1583 0.25 33.075 0.25C35.075 0.25 36.7417 0.916667 38.075 2.25C39.4083 3.58333 40.075 5.20833 40.075 7.125V26.25C40.075 27.0833 40.4917 27.5 41.325 27.5H59.325C61.1583 27.5 62.7 28.1667 63.95 29.5C65.2833 30.75 65.95 32.2917 65.95 34.125C65.95 35.9583 65.2833 37.5417 63.95 38.875C62.7 40.125 61.1583 40.75 59.325 40.75H41.325C40.4917 40.75 40.075 41.1667 40.075 42V61.125C40.075 63.0417 39.4083 64.6667 38.075 66C36.7417 67.3333 35.075 68 33.075 68C31.1583 68 29.5333 67.3333 28.2 66C26.8667 64.6667 26.2 63.0417 26.2 61.125ZM114.375 61.125V42C114.375 41.1667 113.958 40.75 113.125 40.75H95.125C93.2917 40.75 91.7083 40.125 90.375 38.875C89.125 37.5417 88.5 35.9583 88.5 34.125C88.5 32.2917 89.125 30.75 90.375 29.5C91.7083 28.1667 93.2917 27.5 95.125 27.5H113.125C113.958 27.5 114.375 27.0833 114.375 26.25V7.125C114.375 5.20833 115.042 3.58333 116.375 2.25C117.708 0.916667 119.333 0.25 121.25 0.25C123.25 0.25 124.917 0.916667 126.25 2.25C127.583 3.58333 128.25 5.20833 128.25 7.125V26.25C128.25 27.0833 128.667 27.5 129.5 27.5H147.5C149.333 27.5 150.875 28.1667 152.125 29.5C153.458 30.75 154.125 32.2917 154.125 34.125C154.125 35.9583 153.458 37.5417 152.125 38.875C150.875 40.125 149.333 40.75 147.5 40.75H129.5C128.667 40.75 128.25 41.1667 128.25 42V61.125C128.25 63.0417 127.583 64.6667 126.25 66C124.917 67.3333 123.25 68 121.25 68C119.333 68 117.708 67.3333 116.375 66C115.042 64.6667 114.375 63.0417 114.375 61.125Z" fill="#F5F5F5"/>
</svg>
