<?xml version="1.0" encoding="utf-8"?>
<!-- Generator: Adobe Illustrator 21.0.0, SVG Export Plug-In . SVG Version: 6.00 Build 0)  -->
<svg version="1.1" id="圖層_1" xmlns="http://www.w3.org/2000/svg" x="0px" y="0px"
     viewBox="0 0 200 46" style="enable-background:new 0 0 200 46;" xml:space="preserve">
<style type="text/css">
	.st0{enable-background:new    ;}
	.st1{fill:#FFFFFF;}
</style>
    <title>LOGO</title>
    <desc>Created with Sketch.</desc>
    <g class="st0">
	<path class="st1" d="M82.5,31.3c-0.3,0-0.6-0.1-0.9-0.4c-0.3-0.2-0.4-0.5-0.4-0.9V16.3c0-0.3,0.1-0.6,0.4-0.9
		c0.3-0.2,0.5-0.4,0.9-0.4h0.8c0.4,0,0.7,0.1,1.1,0.3c0.3,0.2,0.6,0.5,0.8,0.8l4.1,7.6l1.6,3.5c0,0,0,0.1,0.1,0.1c0,0,0.1,0,0.1-0.1
		c-0.3-2.6-0.4-4.5-0.4-5.7v-5.2c0-0.3,0.1-0.6,0.4-0.9c0.3-0.2,0.5-0.4,0.9-0.4h0.6c0.3,0,0.6,0.1,0.9,0.4c0.3,0.3,0.4,0.5,0.4,0.9
		V30c0,0.3-0.1,0.6-0.4,0.9c-0.3,0.3-0.5,0.4-0.9,0.4h-0.8c-0.4,0-0.7-0.1-1.1-0.3c-0.3-0.2-0.6-0.5-0.8-0.8l-4.1-7.6l-1.6-3.4
		c0,0,0,0-0.1,0c0,0-0.1,0-0.1,0c0,0.2,0.1,0.7,0.1,1.3c0.1,0.7,0.1,1.2,0.1,1.5c0,0.4,0.1,0.8,0.1,1.3c0,0.5,0.1,1,0.1,1.5V30
		c0,0.3-0.1,0.6-0.4,0.9c-0.3,0.3-0.5,0.4-0.9,0.4H82.5z"/>
        <path class="st1" d="M104.4,31.6c-1,0-2-0.2-2.9-0.5c-0.9-0.4-1.7-0.9-2.4-1.6c-0.7-0.7-1.2-1.6-1.6-2.6c-0.4-1.1-0.6-2.3-0.6-3.6
		c0-1.3,0.2-2.5,0.6-3.6c0.4-1.1,0.9-2,1.6-2.7c0.7-0.7,1.5-1.3,2.4-1.7c0.9-0.4,1.9-0.6,2.9-0.6c1.4,0,2.6,0.4,3.8,1.3
		c0.3,0.2,0.5,0.5,0.5,0.9c0,0.3-0.1,0.6-0.3,0.9l-0.1,0.1c-0.2,0.3-0.5,0.4-0.9,0.4c0,0-0.1,0-0.1,0c-0.3,0-0.6-0.1-0.8-0.2
		c-0.6-0.4-1.3-0.6-2-0.6c-1.3,0-2.3,0.5-3.1,1.5c-0.8,1-1.2,2.4-1.2,4.1c0,1.8,0.4,3.1,1.1,4.2c0.8,1,1.8,1.5,3.1,1.5
		c0.9,0,1.7-0.3,2.4-0.8c0.2-0.2,0.5-0.3,0.8-0.3c0,0,0.1,0,0.1,0c0.3,0,0.6,0.2,0.8,0.4l0.1,0.1c0.2,0.3,0.3,0.6,0.3,0.9
		c0,0.4-0.1,0.7-0.4,0.9C107.5,31.1,106,31.6,104.4,31.6z"/>
        <path class="st1" d="M113.4,31.3c-0.3,0-0.6-0.1-0.9-0.4c-0.3-0.2-0.4-0.5-0.4-0.9V16.3c0-0.3,0.1-0.6,0.4-0.9
		c0.3-0.2,0.5-0.4,0.9-0.4h0.7c0.3,0,0.6,0.1,0.9,0.4c0.3,0.3,0.4,0.5,0.4,0.9V22c0,0,0,0,0,0s0,0,0.1,0l4.6-6c0.5-0.7,1.2-1,2-1
		h1.1c0.3,0,0.4,0.1,0.6,0.3c0,0.1,0.1,0.2,0.1,0.3c0,0.1,0,0.3-0.2,0.4l-4.1,5.3c-0.1,0.1-0.1,0.2,0,0.3l5.1,8.6
		c0.1,0.1,0.1,0.3,0.1,0.4c0,0.1,0,0.3-0.1,0.4c-0.1,0.2-0.4,0.4-0.6,0.4H123c-0.4,0-0.8-0.1-1.1-0.3s-0.6-0.5-0.8-0.8l-3.5-6.1
		c-0.1-0.1-0.1-0.1-0.2,0l-1.9,2.5c-0.1,0.1-0.1,0.2-0.1,0.3V30c0,0.3-0.1,0.6-0.4,0.9c-0.3,0.3-0.5,0.4-0.9,0.4H113.4z"/>
        <path class="st1" d="M133.1,31.6c-4.2,0-6.3-2.5-6.3-7.6v-7.7c0-0.3,0.1-0.6,0.4-0.9c0.3-0.2,0.5-0.4,0.9-0.4h0.7
		c0.3,0,0.6,0.1,0.9,0.4c0.3,0.3,0.4,0.5,0.4,0.9v8c0,1.6,0.3,2.8,0.8,3.5c0.5,0.7,1.3,1,2.3,1c1,0,1.8-0.4,2.4-1.1
		c0.5-0.7,0.8-1.9,0.8-3.5v-8c0-0.3,0.1-0.6,0.4-0.9c0.3-0.2,0.5-0.4,0.9-0.4h0.6c0.3,0,0.6,0.1,0.9,0.4c0.3,0.3,0.4,0.5,0.4,0.9V24
		c0,2.6-0.5,4.6-1.6,5.8S135.2,31.6,133.1,31.6z"/>
        <path class="st1" d="M149.5,31.3c-0.3,0-0.6-0.1-0.9-0.4c-0.3-0.2-0.4-0.5-0.4-0.9V16.3c0-0.3,0.1-0.6,0.4-0.9
		c0.3-0.2,0.5-0.4,0.9-0.4h0.7c0.3,0,0.6,0.1,0.9,0.4c0.3,0.3,0.4,0.5,0.4,0.9v5c0,0.1,0,0.2,0.2,0.2h5.8c0.1,0,0.2,0,0.2-0.2v-5
		c0-0.3,0.1-0.6,0.4-0.9c0.3-0.2,0.5-0.4,0.9-0.4h0.7c0.3,0,0.6,0.1,0.9,0.4c0.3,0.3,0.4,0.5,0.4,0.9V30c0,0.3-0.1,0.6-0.4,0.9
		c-0.3,0.3-0.5,0.4-0.9,0.4H159c-0.3,0-0.6-0.1-0.9-0.4c-0.3-0.2-0.4-0.5-0.4-0.9v-5.6c0-0.1,0-0.2-0.2-0.2h-5.8
		c-0.1,0-0.2,0.1-0.2,0.2V30c0,0.3-0.1,0.6-0.4,0.9c-0.3,0.3-0.5,0.4-0.9,0.4H149.5z"/>
        <path class="st1" d="M171.2,31.6c-4.2,0-6.3-2.5-6.3-7.6v-7.7c0-0.3,0.1-0.6,0.4-0.9c0.3-0.2,0.5-0.4,0.9-0.4h0.7
		c0.3,0,0.6,0.1,0.9,0.4c0.3,0.3,0.4,0.5,0.4,0.9v8c0,1.6,0.3,2.8,0.8,3.5c0.5,0.7,1.3,1,2.3,1c1,0,1.8-0.4,2.4-1.1
		c0.5-0.7,0.8-1.9,0.8-3.5v-8c0-0.3,0.1-0.6,0.4-0.9c0.3-0.2,0.5-0.4,0.9-0.4h0.6c0.3,0,0.6,0.1,0.9,0.4c0.3,0.3,0.4,0.5,0.4,0.9V24
		c0,2.6-0.5,4.6-1.6,5.8S173.2,31.6,171.2,31.6z"/>
        <path class="st1" d="M182.6,31.3c-0.3,0-0.6-0.1-0.9-0.4c-0.3-0.2-0.4-0.5-0.4-0.9V16.3c0-0.3,0.1-0.6,0.4-0.9
		c0.3-0.2,0.5-0.4,0.9-0.4h4.1c3.9,0,5.9,1.3,5.9,4c0,0.8-0.2,1.5-0.6,2.1c-0.4,0.7-0.9,1.1-1.6,1.4c0,0-0.1,0-0.1,0.1s0,0.1,0,0.1
		c0.9,0.2,1.6,0.7,2.2,1.3s0.8,1.5,0.8,2.5c0,1.6-0.6,2.8-1.7,3.6c-1.2,0.8-2.7,1.2-4.6,1.2H182.6z M184.6,21.5c0,0.1,0,0.2,0.2,0.2
		h1.7c1,0,1.7-0.2,2.2-0.6c0.5-0.4,0.7-0.9,0.7-1.6c0-0.7-0.2-1.2-0.7-1.5c-0.5-0.3-1.2-0.5-2.2-0.5h-1.8c-0.1,0-0.2,0.1-0.2,0.2
		V21.5z M184.6,28.6c0,0.1,0,0.2,0.2,0.2h2.1c2.3,0,3.4-0.8,3.4-2.5c0-0.8-0.3-1.4-0.9-1.7c-0.6-0.4-1.4-0.5-2.6-0.5h-2.1
		c-0.1,0-0.2,0.1-0.2,0.2V28.6z"/>
</g>
    <path id="Fill-4" class="st1" d="M62.2,21.1v7.2c0,1.6-1.3,2.8-3,2.8c-1.6,0-3-1.3-3-2.8v-7.2c0-1.6,1.3-2.8,3-2.8
	S62.2,19.6,62.2,21.1"/>
    <path id="Fill-1" class="st1" d="M47.2,23.1v11.5c0,1.5-1.3,2.7-2.9,2.7s-2.9-1.2-2.9-2.7V23.1c0-1.5,1.3-2.7,2.9-2.7
	S47.2,21.6,47.2,23.1"/>
    <path id="Fill-9" class="st1" d="M32.1,14.1v11.4c0,1.5-1.3,2.7-2.9,2.7c-1.6,0-2.9-1.2-2.9-2.7V14.1c0-1.5,1.3-2.7,2.9-2.7
	C30.8,11.4,32.1,12.6,32.1,14.1"/>
    <path id="Fill-4_1_" class="st1" d="M17.2,21.1v7.2c0,1.6-1.3,2.8-3,2.8s-3-1.3-3-2.8v-7.2c0-1.6,1.3-2.8,3-2.8S17.2,19.6,17.2,21.1
	"/>
</svg>
