<svg xmlns="http://www.w3.org/2000/svg" width="300" height="85" viewBox="0 0 335 95"><defs><style>.a{clip-path:url(#b);}.b{fill:#3b3c3e;}.c{fill:#a71522;}</style><clipPath id="b"><rect width="335" height="95"/></clipPath></defs><g id="a" class="a"><g transform="translate(-274.954 -187.371)"><g transform="translate(370.374 256.031)"><path class="b" d="M392.693,265.34v.544a2.773,2.773,0,0,0-.456.182.639.639,0,0,0-.23.188,1.22,1.22,0,0,0-.138.371,3.746,3.746,0,0,0-.059.769v9.048h-2.049l-3.666-6.323c-.5-.852-.856-1.531-1.081-2.015h-.084c.067,1.163.084,2.393.084,3.69v2.616a3.946,3.946,0,0,0,.064.86.71.71,0,0,0,.222.379,1.444,1.444,0,0,0,.592.26v.534h-3.064v-.534a1.768,1.768,0,0,0,.467-.182.59.59,0,0,0,.263-.259,1.275,1.275,0,0,0,.1-.426,5.08,5.08,0,0,0,.032-.632v-7.031a4.5,4.5,0,0,0-.054-.835.758.758,0,0,0-.214-.393,1.41,1.41,0,0,0-.593-.265v-.544h3.29l2.874,5.009c.176.315.406.74.7,1.274s.546,1.043.76,1.522h.129c-.055-1.3-.093-2.717-.093-4.245v-1.507a4.244,4.244,0,0,0-.036-.769.81.81,0,0,0-.121-.359.621.621,0,0,0-.232-.2,2.342,2.342,0,0,0-.472-.182v-.544Z" transform="translate(-382.827 -264.806)"/><path class="b" d="M399.948,275.8l-.115-.038a5.13,5.13,0,0,1-1.3.945A3.119,3.119,0,0,1,397.2,277a2.622,2.622,0,0,1-1.214-.26,1.775,1.775,0,0,1-.781-.71,2,2,0,0,1-.267-1.039,2.108,2.108,0,0,1,1.174-1.884,8.4,8.4,0,0,1,3.567-.867v-.774a3.294,3.294,0,0,0-.165-1.172,1.219,1.219,0,0,0-.449-.571,1.179,1.179,0,0,0-.637-.172,1.6,1.6,0,0,0-.655.132,1.335,1.335,0,0,0-.49.49,3.034,3.034,0,0,0-.318,1h-1.538V269.7c.5-.226.905-.4,1.246-.517a8.954,8.954,0,0,1,.978-.3,8.586,8.586,0,0,1,.857-.157,5.006,5.006,0,0,1,.77-.058,3.919,3.919,0,0,1,1.572.266,1.722,1.722,0,0,1,.878.848,3.58,3.58,0,0,1,.3,1.608v3.175c0,.367.011.639.016.83a1.8,1.8,0,0,0,.1.434.442.442,0,0,0,.126.23.579.579,0,0,0,.2.13,1.654,1.654,0,0,0,.438.142v.534h-3.023Zm-.263-2.77a3.4,3.4,0,0,0-1.874.474,1.477,1.477,0,0,0-.6,1.288,1.016,1.016,0,0,0,.28.761,1.053,1.053,0,0,0,.765.261,1.375,1.375,0,0,0,.708-.2,1.536,1.536,0,0,0,.526-.527,1.373,1.373,0,0,0,.2-.708Z" transform="translate(-384.367 -265.229)"/><path class="b" d="M410.351,275.617a5.625,5.625,0,0,1-1.3.858,3.16,3.16,0,0,1-1.238.246,2.284,2.284,0,0,1-1.8-.662,2.805,2.805,0,0,1-.6-1.972v-4.546H404.4v-.56a1.824,1.824,0,0,0,.73-.247,1.055,1.055,0,0,0,.367-.429,2.242,2.242,0,0,0,.2-.716,8.1,8.1,0,0,0,.127-1.1h1.939v2.037h2.318v1.012h-2.318v3.667a9.23,9.23,0,0,0,.081,1.362,1.172,1.172,0,0,0,.3.642.657.657,0,0,0,.49.2,1.8,1.8,0,0,0,.41-.038,1.559,1.559,0,0,0,.374-.14,2.126,2.126,0,0,0,.424-.3Z" transform="translate(-385.571 -264.952)"/><path class="b" d="M411.265,275.876a1.215,1.215,0,0,0,.547-.28.9.9,0,0,0,.2-.463,6.384,6.384,0,0,0,.06-1.057v-3.783a4.584,4.584,0,0,0-.038-.643,1.1,1.1,0,0,0-.144-.4.64.64,0,0,0-.273-.219,3.6,3.6,0,0,0-.451-.138v-.544l2.236-.065h1.015v5.778c0,.309.012.538.012.7a2.23,2.23,0,0,0,.04.373.846.846,0,0,0,.065.244.738.738,0,0,0,.328.361,1.721,1.721,0,0,0,.362.13v.534h-3.956Zm3.09-10.774v1.992h-2.237V265.1Z" transform="translate(-386.432 -264.776)"/><path class="b" d="M420.7,277a4.755,4.755,0,0,1-2.061-.415,3.118,3.118,0,0,1-1.364-1.348,5.137,5.137,0,0,1-.482-2.349,5.373,5.373,0,0,1,.3-1.883,3.524,3.524,0,0,1,.84-1.314,3.277,3.277,0,0,1,1.276-.769,5.184,5.184,0,0,1,1.613-.254,3.925,3.925,0,0,1,2.969,1.04,4.247,4.247,0,0,1,1,3.043,5.14,5.14,0,0,1-.494,2.368,3.193,3.193,0,0,1-1.419,1.417A4.794,4.794,0,0,1,420.7,277Zm-1.436-4.291a6.774,6.774,0,0,0,.384,2.59,1.247,1.247,0,0,0,1.165.852,1.159,1.159,0,0,0,.724-.219,1.379,1.379,0,0,0,.458-.633,3.458,3.458,0,0,0,.253-.994,10.881,10.881,0,0,0,.065-1.3,6.718,6.718,0,0,0-.378-2.612,1.235,1.235,0,0,0-1.148-.864,1.131,1.131,0,0,0-.875.345,2.1,2.1,0,0,0-.495,1.053A8.51,8.51,0,0,0,419.263,272.707Z" transform="translate(-387.148 -265.229)"/><path class="b" d="M435.891,276.864H431.95v-.534a.932.932,0,0,0,.516-.265,1.015,1.015,0,0,0,.2-.47,6.9,6.9,0,0,0,.05-1.064v-2.178c0-.381-.011-.7-.027-.943a4.876,4.876,0,0,0-.069-.6,1.236,1.236,0,0,0-.15-.394,1.273,1.273,0,0,0-.21-.274.834.834,0,0,0-.253-.141,1.1,1.1,0,0,0-.378-.051,1.243,1.243,0,0,0-.638.192,1.647,1.647,0,0,0-.565.526,1.248,1.248,0,0,0-.23.715v3.138a6.244,6.244,0,0,0,.052,1.069.88.88,0,0,0,.2.477,1,1,0,0,0,.539.265v.534h-3.935v-.534a1.061,1.061,0,0,0,.539-.28.942.942,0,0,0,.209-.463,7.8,7.8,0,0,0,.049-1.057v-3.349c0-.4-.01-.694-.017-.892a1.329,1.329,0,0,0-.1-.458.584.584,0,0,0-.235-.292,1.9,1.9,0,0,0-.546-.19v-.544l2.226-.065H430.2l-.118,1.16.1.035a6.587,6.587,0,0,1,.891-.706,3.315,3.315,0,0,1,.79-.4,2.636,2.636,0,0,1,.881-.158,2.7,2.7,0,0,1,1.11.2,1.853,1.853,0,0,1,.71.554,2.371,2.371,0,0,1,.39.892,5.622,5.622,0,0,1,.12,1.23v2.98c0,.235,0,.459.015.668a3.357,3.357,0,0,0,.051.505,1.314,1.314,0,0,0,.142.3.489.489,0,0,0,.241.2,1.678,1.678,0,0,0,.369.142Z" transform="translate(-388.441 -265.229)"/><path class="b" d="M442.828,275.8l-.12-.038a5.216,5.216,0,0,1-1.3.945,3.114,3.114,0,0,1-1.337.292,2.652,2.652,0,0,1-1.221-.26,1.838,1.838,0,0,1-.781-.71,2.124,2.124,0,0,1,.909-2.924,8.471,8.471,0,0,1,3.572-.867v-.774a3.319,3.319,0,0,0-.17-1.172,1.244,1.244,0,0,0-.435-.571,1.228,1.228,0,0,0-.642-.172,1.57,1.57,0,0,0-.65.132,1.233,1.233,0,0,0-.495.49,2.87,2.87,0,0,0-.325,1h-1.537V269.7c.489-.226.91-.4,1.245-.517a9.743,9.743,0,0,1,.979-.3,8.508,8.508,0,0,1,.869-.157,4.684,4.684,0,0,1,.758-.058,3.891,3.891,0,0,1,1.572.266,1.778,1.778,0,0,1,.891.848,3.764,3.764,0,0,1,.284,1.608v3.175c0,.367.012.639.027.83a2.593,2.593,0,0,0,.071.434.656.656,0,0,0,.143.23.494.494,0,0,0,.2.13,1.78,1.78,0,0,0,.442.142v.534h-3.023Zm-.271-2.77a3.406,3.406,0,0,0-1.867.474,1.48,1.48,0,0,0-.606,1.288,1.016,1.016,0,0,0,.272.761,1.087,1.087,0,0,0,.772.261,1.344,1.344,0,0,0,.705-.2,1.429,1.429,0,0,0,.528-.527,1.458,1.458,0,0,0,.2-.708Z" transform="translate(-389.822 -265.229)"/><path class="b" d="M450.732,274.017a6.661,6.661,0,0,0,.055,1.069.836.836,0,0,0,.2.463,1.11,1.11,0,0,0,.56.28v.534h-3.982v-.534a1.231,1.231,0,0,0,.384-.142.572.572,0,0,0,.209-.166,1.1,1.1,0,0,0,.137-.271,1.559,1.559,0,0,0,.072-.43c.005-.191.015-.455.015-.8v-6.341c0-.47-.01-.808-.01-1.033s-.029-.4-.045-.546a1.111,1.111,0,0,0-.128-.359.506.506,0,0,0-.242-.213,1.733,1.733,0,0,0-.492-.152v-.533l2.252-.112h1.017Z" transform="translate(-391.051 -264.728)"/><path class="b" d="M464.909,265.585v2.352H463.8a2.727,2.727,0,0,0-.608-1.355,1.5,1.5,0,0,0-1.115-.433,2.09,2.09,0,0,0-1.942,1.238,7.827,7.827,0,0,0-.66,3.647,7.693,7.693,0,0,0,.6,3.414,1.925,1.925,0,0,0,1.763,1.161,2.092,2.092,0,0,0,.971-.2,1.435,1.435,0,0,0,.6-.6,4.079,4.079,0,0,0,.39-1.118h1.115v2.457c-.606.147-1.143.246-1.631.315a12.482,12.482,0,0,1-1.54.1,5.576,5.576,0,0,1-2.768-.611A3.653,3.653,0,0,1,457.4,274.1a8.029,8.029,0,0,1-.512-3.115,7.31,7.31,0,0,1,.6-3.063,4.478,4.478,0,0,1,1.764-2.02,5.233,5.233,0,0,1,2.771-.7,10.409,10.409,0,0,1,1.487.092A9.7,9.7,0,0,1,464.909,265.585Z" transform="translate(-392.25 -264.788)"/><path class="b" d="M470.174,269.377a5.377,5.377,0,0,1,1.326-.937,2.722,2.722,0,0,1,1.18-.275,2.466,2.466,0,0,1,1.385.337,1.837,1.837,0,0,1,.714.944,4.768,4.768,0,0,1,.23,1.605v2.966c0,.235,0,.459.012.668a2.345,2.345,0,0,0,.055.505.815.815,0,0,0,.137.3.564.564,0,0,0,.231.2,1.787,1.787,0,0,0,.381.142v.534h-3.948v-.534a.965.965,0,0,0,.529-.26,1.009,1.009,0,0,0,.192-.476,7.652,7.652,0,0,0,.053-1.064V271.9a12.293,12.293,0,0,0-.053-1.262,1.882,1.882,0,0,0-.181-.7.817.817,0,0,0-.326-.37.913.913,0,0,0-.514-.124,1.322,1.322,0,0,0-.655.192,1.68,1.68,0,0,0-.56.518,1.265,1.265,0,0,0-.226.712v3.148c0,.309.01.538.01.7.019.16.028.291.039.373.022.1.051.18.068.244a.879.879,0,0,0,.12.2.812.812,0,0,0,.215.162,1.646,1.646,0,0,0,.367.13v.534h-3.975v-.534a1.214,1.214,0,0,0,.373-.142.638.638,0,0,0,.216-.166.721.721,0,0,0,.134-.271,1.34,1.34,0,0,0,.078-.43c.01-.191.01-.455.01-.8v-6.341c0-.47,0-.808-.01-1.033a3.151,3.151,0,0,0-.057-.546.838.838,0,0,0-.121-.359.505.505,0,0,0-.231-.213,1.757,1.757,0,0,0-.494-.152v-.533l2.243-.112h1.017v4.637Z" transform="translate(-393.521 -264.728)"/><path class="b" d="M485.339,275.391a5.209,5.209,0,0,1-1.637,1.24,4.535,4.535,0,0,1-1.867.367,3.72,3.72,0,0,1-2.858-1.034,4.443,4.443,0,0,1-.95-3.077,4.92,4.92,0,0,1,.494-2.278,3.431,3.431,0,0,1,1.386-1.444,4.367,4.367,0,0,1,2.1-.5,4.8,4.8,0,0,1,1.3.168,2.862,2.862,0,0,1,.956.49,2.652,2.652,0,0,1,.664.731,4.117,4.117,0,0,1,.459,1.176,7.881,7.881,0,0,1,.167,1.632H480.4a3.711,3.711,0,0,0,.515,2.162,1.839,1.839,0,0,0,1.581.7,2.59,2.59,0,0,0,1.116-.23,4,4,0,0,0,1.071-.816Zm-2.191-3.408a4.8,4.8,0,0,0-.323-1.851.979.979,0,0,0-.947-.61,1.127,1.127,0,0,0-1,.63,4.374,4.374,0,0,0-.434,1.831Z" transform="translate(-394.939 -265.229)"/><path class="b" d="M496.4,276.864h-3.953v-.534a.947.947,0,0,0,.523-.265.972.972,0,0,0,.2-.47,7.9,7.9,0,0,0,.054-1.064v-2.178c0-.381-.016-.7-.027-.943a3.942,3.942,0,0,0-.074-.6,1.194,1.194,0,0,0-.152-.394,1.233,1.233,0,0,0-.213-.274A.8.8,0,0,0,492.5,270a1,1,0,0,0-.374-.051,1.238,1.238,0,0,0-.641.192,1.693,1.693,0,0,0-.561.526,1.3,1.3,0,0,0-.237.715v3.138a7.236,7.236,0,0,0,.061,1.069.9.9,0,0,0,.193.477,1.018,1.018,0,0,0,.538.265v.534h-3.921v-.534a1.061,1.061,0,0,0,.531-.28.859.859,0,0,0,.2-.463,7.561,7.561,0,0,0,.054-1.057v-3.349c0-.4-.005-.694-.023-.892a1.571,1.571,0,0,0-.081-.458.759.759,0,0,0-.242-.292,1.981,1.981,0,0,0-.555-.19v-.544l2.239-.065h1.008l-.108,1.16.092.035a7.967,7.967,0,0,1,.889-.706,3.258,3.258,0,0,1,.8-.4,2.558,2.558,0,0,1,.874-.158,2.749,2.749,0,0,1,1.112.2,1.629,1.629,0,0,1,.7.554,2.107,2.107,0,0,1,.392.892,5.365,5.365,0,0,1,.12,1.23v2.98c0,.235.011.459.017.668a2.087,2.087,0,0,0,.057.505,1.327,1.327,0,0,0,.134.3.628.628,0,0,0,.242.2,1.731,1.731,0,0,0,.38.142Z" transform="translate(-396.138 -265.229)"/><path class="b" d="M506.347,269.9l-1.383-.161-.04.094a1.549,1.549,0,0,1,.381.619,2.616,2.616,0,0,1,.154.938,2.655,2.655,0,0,1-.863,2.152,3.762,3.762,0,0,1-2.528.731,5.2,5.2,0,0,1-1.307-.142,1.057,1.057,0,0,0-.411.782.612.612,0,0,0,.1.373.664.664,0,0,0,.35.2,2.518,2.518,0,0,0,.687.068h2.016a3.29,3.29,0,0,1,2.029.527,1.939,1.939,0,0,1,.685,1.643,2.37,2.37,0,0,1-.495,1.5,3.168,3.168,0,0,1-1.417.953,6.432,6.432,0,0,1-2.174.323,14.806,14.806,0,0,1-1.675-.076,5.047,5.047,0,0,1-1.271-.294,1.9,1.9,0,0,1-.808-.594,1.482,1.482,0,0,1-.29-.948,1.377,1.377,0,0,1,.29-.855,2.352,2.352,0,0,1,.82-.668,1.64,1.64,0,0,1-.505-.561,1.892,1.892,0,0,1-.145-.779,1.809,1.809,0,0,1,.145-.718,2.385,2.385,0,0,1,.434-.6,7.932,7.932,0,0,1,.688-.612,2.427,2.427,0,0,1-.969-.929,2.941,2.941,0,0,1-.312-1.361,2.878,2.878,0,0,1,.275-1.3,2.414,2.414,0,0,1,.743-.878,3.137,3.137,0,0,1,1.12-.5,5.628,5.628,0,0,1,1.394-.168,5.246,5.246,0,0,1,.726.047c.221.027.423.054.62.092h2.934Zm-5.78,7.493a1.861,1.861,0,0,0-.445.491,1.348,1.348,0,0,0-.143.618.934.934,0,0,0,.5.865,3.494,3.494,0,0,0,1.618.279,2.851,2.851,0,0,0,1.541-.34,1.075,1.075,0,0,0,.539-.957.951.951,0,0,0-.1-.469.69.69,0,0,0-.376-.327,2.045,2.045,0,0,0-.809-.131H501.5C501.1,277.418,500.8,277.41,500.568,277.391Zm.3-5.977a3.2,3.2,0,0,0,.284,1.524.977.977,0,0,0,.9.491.946.946,0,0,0,.866-.463,2.651,2.651,0,0,0,.294-1.411,3.313,3.313,0,0,0-.284-1.52.928.928,0,0,0-.887-.525.983.983,0,0,0-.889.47A2.845,2.845,0,0,0,500.866,271.414Z" transform="translate(-397.492 -265.229)"/><path class="b" d="M520.739,274.281c.21.319.39.58.522.775a5.5,5.5,0,0,0,.385.45,1.1,1.1,0,0,0,.325.246,1.564,1.564,0,0,0,.412.16v.529h-4.406v-.534a.605.605,0,0,0,.367-.142.289.289,0,0,0,.114-.244.861.861,0,0,0-.039-.252,3.755,3.755,0,0,0-.18-.367c-.093-.164-.286-.457-.56-.892l-1.249-1.919a4.278,4.278,0,0,0-.394-.55,1.042,1.042,0,0,0-.329-.282,1.2,1.2,0,0,0-.457-.074h-.164V274.4c0,.186,0,.359.01.526a1.744,1.744,0,0,0,.072.4.615.615,0,0,0,.148.259.543.543,0,0,0,.246.177,1.525,1.525,0,0,0,.4.142v.534H511.7v-.534a2.051,2.051,0,0,0,.476-.174.68.68,0,0,0,.26-.259,1.334,1.334,0,0,0,.11-.423c.015-.17.021-.384.021-.647V267.4c0-.264-.006-.468-.021-.649a1.153,1.153,0,0,0-.1-.417.712.712,0,0,0-.263-.264,1.73,1.73,0,0,0-.483-.183v-.544h4.267v.544a1.566,1.566,0,0,0-.5.2.653.653,0,0,0-.236.25.979.979,0,0,0-.114.371,5.227,5.227,0,0,0-.028.695v2.894h.175a1.825,1.825,0,0,0,.593-.08,1.365,1.365,0,0,0,.445-.3c.152-.14.45-.465.894-.987s.754-.913.958-1.188a4.07,4.07,0,0,0,.4-.7,1.206,1.206,0,0,0,.109-.545.514.514,0,0,0-.186-.437.809.809,0,0,0-.539-.175v-.544h4.153v.553a2.2,2.2,0,0,0-.526.174,3.735,3.735,0,0,0-.505.371,8.735,8.735,0,0,0-.725.753l-2.432,2.731Z" transform="translate(-399.223 -264.806)"/><path class="b" d="M523.443,268.826H526.6v4.506a11.359,11.359,0,0,0,.054,1.224,1.643,1.643,0,0,0,.194.686.783.783,0,0,0,.328.373.941.941,0,0,0,.505.125,1.388,1.388,0,0,0,.639-.182,1.816,1.816,0,0,0,.571-.527,1.255,1.255,0,0,0,.224-.72v-3.139c0-.391,0-.688-.015-.881a1.427,1.427,0,0,0-.109-.453.592.592,0,0,0-.2-.278,1.762,1.762,0,0,0-.484-.209v-.525h3.166v5.688c0,.418.011.709.022.9a1.264,1.264,0,0,0,.1.456.722.722,0,0,0,.223.281,1.857,1.857,0,0,0,.551.188v.545l-2.209.077h-.99l.08-1.167-.1-.028a5.6,5.6,0,0,1-1.351.967,2.759,2.759,0,0,1-1.2.285,2.5,2.5,0,0,1-1.369-.324,1.782,1.782,0,0,1-.751-.945,4.785,4.785,0,0,1-.227-1.6v-2.979c0-.3,0-.532-.016-.7s-.017-.292-.028-.379a1.281,1.281,0,0,0-.065-.24,1.412,1.412,0,0,0-.127-.21,1.31,1.31,0,0,0-.208-.152,1.77,1.77,0,0,0-.368-.138Z" transform="translate(-400.718 -265.249)"/><path class="b" d="M543.331,276.864h-3.948v-.534a.986.986,0,0,0,.523-.265.967.967,0,0,0,.2-.47,7.155,7.155,0,0,0,.062-1.064v-2.178c0-.381-.012-.7-.033-.943a2.856,2.856,0,0,0-.078-.6,1.156,1.156,0,0,0-.149-.394,1.486,1.486,0,0,0-.2-.274.934.934,0,0,0-.264-.141.979.979,0,0,0-.365-.051,1.308,1.308,0,0,0-.655.192,1.67,1.67,0,0,0-.556.526,1.27,1.27,0,0,0-.221.715v3.138a8.9,8.9,0,0,0,.044,1.069.938.938,0,0,0,.2.477,1.056,1.056,0,0,0,.533.265v.534h-3.926v-.534a1.113,1.113,0,0,0,.54-.28.937.937,0,0,0,.2-.463,5.79,5.79,0,0,0,.056-1.057v-3.349c0-.4,0-.694-.022-.892a1.412,1.412,0,0,0-.094-.458.668.668,0,0,0-.235-.292,2,2,0,0,0-.552-.19v-.544l2.228-.065h1.033l-.128,1.16.1.035a7.308,7.308,0,0,1,.895-.706,3.23,3.23,0,0,1,.793-.4,2.883,2.883,0,0,1,1.988.038,1.732,1.732,0,0,1,.715.554,2.474,2.474,0,0,1,.389.892,5.833,5.833,0,0,1,.111,1.23v2.98c0,.235.01.459.021.668a2.132,2.132,0,0,0,.063.505.625.625,0,0,0,.137.3.53.53,0,0,0,.222.2,1.864,1.864,0,0,0,.388.142Z" transform="translate(-402.11 -265.229)"/><path class="b" d="M553.288,269.9l-1.39-.161-.034.094a1.68,1.68,0,0,1,.374.619,2.422,2.422,0,0,1,.154.938,2.691,2.691,0,0,1-.852,2.152,3.771,3.771,0,0,1-2.527.731,5.3,5.3,0,0,1-1.326-.142,1.039,1.039,0,0,0-.4.782.546.546,0,0,0,.1.373.643.643,0,0,0,.346.2,2.516,2.516,0,0,0,.685.068h2.012a3.317,3.317,0,0,1,2.043.527,1.94,1.94,0,0,1,.673,1.643,2.383,2.383,0,0,1-.491,1.5,3.141,3.141,0,0,1-1.417.953,6.427,6.427,0,0,1-2.17.323,14.742,14.742,0,0,1-1.677-.076,5.137,5.137,0,0,1-1.267-.294,1.952,1.952,0,0,1-.82-.594,1.485,1.485,0,0,1-.285-.948,1.347,1.347,0,0,1,.292-.855,2.478,2.478,0,0,1,.814-.668,1.605,1.605,0,0,1-.49-.561,1.859,1.859,0,0,1-.154-.779,1.693,1.693,0,0,1,.16-.718,2.081,2.081,0,0,1,.424-.6,5.652,5.652,0,0,1,.686-.612,2.358,2.358,0,0,1-.964-.929,2.782,2.782,0,0,1-.322-1.361,2.878,2.878,0,0,1,.268-1.3,2.336,2.336,0,0,1,.753-.878,3.1,3.1,0,0,1,1.12-.5,5.629,5.629,0,0,1,1.4-.168,5.511,5.511,0,0,1,.73.047c.209.027.413.054.615.092h2.936Zm-5.774,7.493a1.552,1.552,0,0,0-.451.491,1.269,1.269,0,0,0-.149.618.924.924,0,0,0,.508.865,3.42,3.42,0,0,0,1.615.279,2.908,2.908,0,0,0,1.554-.34,1.073,1.073,0,0,0,.524-.957,1.1,1.1,0,0,0-.088-.469.724.724,0,0,0-.38-.327,2.1,2.1,0,0,0-.814-.131h-1.395C548.035,277.418,547.731,277.41,547.514,277.391Zm.284-5.977a3.191,3.191,0,0,0,.289,1.524.982.982,0,0,0,.911.491.946.946,0,0,0,.856-.463,2.665,2.665,0,0,0,.3-1.411,3.073,3.073,0,0,0-.3-1.52.923.923,0,0,0-.874-.525.978.978,0,0,0-.894.47A2.838,2.838,0,0,0,547.8,271.414Z" transform="translate(-403.464 -265.229)"/><path class="b" d="M565.763,267.393a4.02,4.02,0,0,0-.054-.851.68.68,0,0,0-.21-.393,1.436,1.436,0,0,0-.6-.265v-.544h3.589v.544a2.03,2.03,0,0,0-.477.175.605.605,0,0,0-.256.259.973.973,0,0,0-.11.427,3.865,3.865,0,0,0-.034.648v5.07a7.137,7.137,0,0,1-.159,1.691,3.062,3.062,0,0,1-.506,1.142,2.563,2.563,0,0,1-.841.742,3.671,3.671,0,0,1-1.148.412,7.342,7.342,0,0,1-1.418.125,6.925,6.925,0,0,1-1.956-.235,3.094,3.094,0,0,1-1.3-.736,3,3,0,0,1-.749-1.173,5.718,5.718,0,0,1-.237-1.784V267.4c0-.264,0-.468-.01-.649a1.032,1.032,0,0,0-.111-.417.648.648,0,0,0-.267-.264,1.617,1.617,0,0,0-.48-.183v-.544H562.7v.544a1.827,1.827,0,0,0-.483.189.875.875,0,0,0-.251.25,1.259,1.259,0,0,0-.1.379,4.119,4.119,0,0,0-.044.695v5.362a7.373,7.373,0,0,0,.09,1.174,2.31,2.31,0,0,0,.3.9,1.371,1.371,0,0,0,.593.579,2.05,2.05,0,0,0,.989.211,1.917,1.917,0,0,0,1.232-.335,1.766,1.766,0,0,0,.572-.935,7.147,7.147,0,0,0,.165-1.782Z" transform="translate(-405.17 -264.806)"/><path class="b" d="M579.731,276.864h-3.964v-.534a1.037,1.037,0,0,0,.532-.265.951.951,0,0,0,.2-.47,7.8,7.8,0,0,0,.044-1.064v-2.178c0-.381,0-.7-.01-.943s-.049-.452-.077-.6a1.274,1.274,0,0,0-.155-.394.9.9,0,0,0-.207-.274.85.85,0,0,0-.252-.141,1.084,1.084,0,0,0-.376-.051,1.3,1.3,0,0,0-.648.192,1.558,1.558,0,0,0-.554.526,1.284,1.284,0,0,0-.237.715v3.138a7.428,7.428,0,0,0,.059,1.069.854.854,0,0,0,.2.477,1.064,1.064,0,0,0,.526.265v.534h-3.913v-.534a1.163,1.163,0,0,0,.534-.28.9.9,0,0,0,.2-.463,7.885,7.885,0,0,0,.051-1.057v-3.349c0-.4-.005-.694-.02-.892a1.233,1.233,0,0,0-.09-.458.652.652,0,0,0-.241-.292,1.761,1.761,0,0,0-.55-.19v-.544l2.231-.065h1.015l-.12,1.16.1.035a8.334,8.334,0,0,1,.875-.706,3.76,3.76,0,0,1,.807-.4,2.563,2.563,0,0,1,.886-.158,2.681,2.681,0,0,1,1.1.2,1.829,1.829,0,0,1,.717.554,2.4,2.4,0,0,1,.385.892,5.442,5.442,0,0,1,.127,1.23v2.98c0,.235,0,.459.011.668a2.017,2.017,0,0,0,.054.505.8.8,0,0,0,.136.3.54.54,0,0,0,.236.2,1.544,1.544,0,0,0,.388.142Z" transform="translate(-406.74 -265.229)"/><path class="b" d="M581.858,275.876a1.1,1.1,0,0,0,.538-.28.887.887,0,0,0,.213-.463,6.423,6.423,0,0,0,.056-1.057v-3.783a4.1,4.1,0,0,0-.043-.643,1.365,1.365,0,0,0-.126-.4.891.891,0,0,0-.292-.219,2.892,2.892,0,0,0-.445-.138v-.544l2.235-.065h1.018v5.778c0,.309,0,.538.01.7a2.222,2.222,0,0,0,.036.373,1.189,1.189,0,0,0,.069.244.564.564,0,0,0,.121.2.6.6,0,0,0,.208.162,2,2,0,0,0,.359.13v.534h-3.955Zm3.083-10.774v1.992h-2.226V265.1Z" transform="translate(-408.138 -264.776)"/><path class="b" d="M590.27,268.826v.525a1.329,1.329,0,0,0-.555.229.51.51,0,0,0-.181.438,3.433,3.433,0,0,0,.207,1.015l1.179,3.55,1.289-3.109c.1-.264.175-.486.239-.695a1.926,1.926,0,0,0,.077-.571.846.846,0,0,0-.183-.574.977.977,0,0,0-.56-.284v-.525h3.159v.542a1.33,1.33,0,0,0-.377.182,1.72,1.72,0,0,0-.267.271c-.081.116-.18.278-.312.507-.108.226-.264.564-.477,1.026l-2.545,5.616h-1.528l-2.152-6.191a4.622,4.622,0,0,0-.353-.879,1.231,1.231,0,0,0-.3-.36.948.948,0,0,0-.4-.19v-.525Z" transform="translate(-408.705 -265.249)"/><path class="b" d="M603.248,275.391a5.27,5.27,0,0,1-1.644,1.24,4.532,4.532,0,0,1-1.87.367,3.719,3.719,0,0,1-2.85-1.034,4.465,4.465,0,0,1-.954-3.077,4.91,4.91,0,0,1,.5-2.278,3.339,3.339,0,0,1,1.392-1.444,4.28,4.28,0,0,1,2.093-.5,4.944,4.944,0,0,1,1.307.168,3.017,3.017,0,0,1,.95.49,2.616,2.616,0,0,1,.654.731,3.88,3.88,0,0,1,.46,1.176,6.465,6.465,0,0,1,.174,1.632h-5.144a3.613,3.613,0,0,0,.516,2.162,1.828,1.828,0,0,0,1.577.7,2.52,2.52,0,0,0,1.11-.23,3.769,3.769,0,0,0,1.083-.816Zm-2.192-3.408a4.5,4.5,0,0,0-.336-1.851.951.951,0,0,0-.93-.61,1.109,1.109,0,0,0-.99.63,4.223,4.223,0,0,0-.46,1.831Z" transform="translate(-409.94 -265.229)"/><path class="b" d="M608.5,269.959l.1.027a3.576,3.576,0,0,1,1.226-1,2.9,2.9,0,0,1,1.34-.324,5.947,5.947,0,0,1,1.045.112v2.245H610.75a1.969,1.969,0,0,0-.362-.722.753.753,0,0,0-.587-.256.887.887,0,0,0-.408.107,1.573,1.573,0,0,0-.4.312,1.353,1.353,0,0,0-.258.408,1.676,1.676,0,0,0-.11.418c-.007.137-.028.352-.028.624v2.6a7.11,7.11,0,0,0,.062,1.076.862.862,0,0,0,.23.486,1.044,1.044,0,0,0,.583.25v.534h-4.016v-.534a1.069,1.069,0,0,0,.545-.28.962.962,0,0,0,.2-.463,8.432,8.432,0,0,0,.055-1.057v-3.349a7.29,7.29,0,0,0-.029-.892,1.388,1.388,0,0,0-.093-.458.646.646,0,0,0-.232-.292,2.039,2.039,0,0,0-.554-.19v-.544l2.231-.065H608.6Z" transform="translate(-411.14 -265.229)"/><path class="b" d="M614.783,274.672a2.343,2.343,0,0,0,.615,1.112,1.713,1.713,0,0,0,1.134.364,1.3,1.3,0,0,0,.923-.278,1.01,1.01,0,0,0,.325-.8,1.206,1.206,0,0,0-.138-.571,1.829,1.829,0,0,0-.482-.451,8.693,8.693,0,0,0-1.121-.564,6.275,6.275,0,0,1-.848-.433,3.481,3.481,0,0,1-.686-.537,2.263,2.263,0,0,1-.467-.662,2,2,0,0,1-.169-.8,1.961,1.961,0,0,1,.422-1.271,2.606,2.606,0,0,1,1.209-.823,5.29,5.29,0,0,1,1.8-.292,10.938,10.938,0,0,1,1.151.058c.388.034.878.1,1.476.208v1.894h-1.065a3.86,3.86,0,0,0-.411-.8,1.3,1.3,0,0,0-.5-.4,1.623,1.623,0,0,0-.637-.1,1.413,1.413,0,0,0-.854.233.835.835,0,0,0-.323.687,1.132,1.132,0,0,0,.116.532,1.4,1.4,0,0,0,.4.428,7.518,7.518,0,0,0,1.131.561,5.878,5.878,0,0,1,1.253.658,2.345,2.345,0,0,1,.725.8,2.168,2.168,0,0,1,.254,1.053,2.36,2.36,0,0,1-.244,1.125,2.105,2.105,0,0,1-.675.792,3.028,3.028,0,0,1-1.061.457,5.253,5.253,0,0,1-1.351.154,13.128,13.128,0,0,1-2.977-.387v-1.938Z" transform="translate(-412.203 -265.229)"/><path class="b" d="M621.941,275.876a1.158,1.158,0,0,0,.549-.28.991.991,0,0,0,.209-.463,6.428,6.428,0,0,0,.056-1.057v-3.783a3.881,3.881,0,0,0-.045-.643,1,1,0,0,0-.134-.4.762.762,0,0,0-.283-.219,2.435,2.435,0,0,0-.444-.138v-.544l2.234-.065H625.1v5.778c0,.309,0,.538.011.7s.028.292.031.373a.912.912,0,0,0,.079.244.411.411,0,0,0,.122.2.628.628,0,0,0,.2.162,1.507,1.507,0,0,0,.37.13v.534h-3.975Zm3.088-10.774v1.992h-2.218V265.1Z" transform="translate(-413.238 -264.776)"/><path class="b" d="M632.923,275.617a5.2,5.2,0,0,1-1.291.858,3.2,3.2,0,0,1-1.232.246,2.35,2.35,0,0,1-1.823-.662,2.908,2.908,0,0,1-.583-1.972v-4.546h-1.022v-.56a1.9,1.9,0,0,0,.738-.247,1.277,1.277,0,0,0,.373-.429,3.056,3.056,0,0,0,.2-.716,7.877,7.877,0,0,0,.112-1.1h1.952v2.037h2.308v1.012h-2.308v3.667a8.7,8.7,0,0,0,.072,1.362,1.291,1.291,0,0,0,.3.642.7.7,0,0,0,.512.2,1.847,1.847,0,0,0,.406-.038,2.113,2.113,0,0,0,.377-.14,3.523,3.523,0,0,0,.413-.3Z" transform="translate(-413.89 -264.952)"/><path class="b" d="M637.876,277.252a10.858,10.858,0,0,1-.992,1.85,3.639,3.639,0,0,1-1,1,2.523,2.523,0,0,1-1.351.333,3.919,3.919,0,0,1-1.135-.156v-1.856h.914a.923.923,0,0,0,.269.514.63.63,0,0,0,.434.151,1.007,1.007,0,0,0,.56-.167,2.765,2.765,0,0,0,.561-.638,11.553,11.553,0,0,0,.762-1.4h-.454l-2.132-6.1a5.8,5.8,0,0,0-.359-.879,1.1,1.1,0,0,0-.308-.36.859.859,0,0,0-.406-.19v-.525H637.3v.525a1.327,1.327,0,0,0-.565.229.5.5,0,0,0-.169.438,3.034,3.034,0,0,0,.207,1.015l1.156,3.55,1.3-3.109a7.012,7.012,0,0,0,.242-.695,1.955,1.955,0,0,0,.08-.571.87.87,0,0,0-.195-.574.971.971,0,0,0-.547-.284v-.525h3.159v.542a1.035,1.035,0,0,0-.38.182,1.689,1.689,0,0,0-.28.271c-.065.116-.177.278-.291.507s-.28.564-.49,1.026Z" transform="translate(-414.687 -265.249)"/></g><g transform="translate(369.692 196.661)"><g transform="translate(80.364 1.094)"><path class="b" d="M492.814,230.422c.73-.7-.936-1.573-1.687-1.587a2.347,2.347,0,0,0-1.408.217c-.5.372-1.022.708-1.53,1.06-1.256.952-2.286,1.3-2.611,2.375-.127.409.192,2.433.957,2.091A25.414,25.414,0,0,0,492.814,230.422Z" transform="translate(-475.579 -201.884)"/><path class="b" d="M499.766,228.293a4.3,4.3,0,0,1-.929-1.294c-.418-.678-.874-1.315-1.275-2.011a6.251,6.251,0,0,1-.995-2.853,7.161,7.161,0,0,1,1.338-3.853,13.87,13.87,0,0,1,1.108-1.739,29.393,29.393,0,0,1,3.731-3.5c.974-.574,2.134-1.2,2.305-2.433a2.876,2.876,0,0,0-1.2-2.592,5.706,5.706,0,0,0-2.738-.62,3.7,3.7,0,0,0-1.943.112c-.963.6,1.1,1.053,1.1,1.415,0,1.5-1.264,2.915-2.608,3.982A16.658,16.658,0,0,1,496,214.027a16.1,16.1,0,0,1-2.027.966c-.511.2-1.011.606-1.5.066a9.061,9.061,0,0,1-1.122-2.187c-.785-1.576-1.692-3.106-2.472-4.694a39.586,39.586,0,0,0-2.329-3.833c-.892-1.4-1.779-2.794-2.66-4.2-.2-.5-.669-.94-.9-1.473-.18-.407-.069-.752-.645-.717,0,0-.259-.025-.661.622a4.456,4.456,0,0,0-.573,1.633c-.053.364.573.429.8.7A45.059,45.059,0,0,1,485.728,206a37.1,37.1,0,0,1,4.228,9.024,1.676,1.676,0,0,1-.623,1.878,4.157,4.157,0,0,1-.908.863c-.587.412-1.219.77-1.807,1.122-1.609.978-3.4,1.645-5.043,2.569a6.606,6.606,0,0,1-2.352.931,2.93,2.93,0,0,1-1.3-.124c-.223-.086-.716-.5-.758-.007a18.3,18.3,0,0,1-.461,2.626c-.368,1.855,2.5,1.869,2.554,3.775a26.194,26.194,0,0,1-.587,5.852c-.253,1.293-.581,2.575-.918,3.851-.1.355-.2,1.567-.687,1.54a2.485,2.485,0,0,1-1.437-.647c-.266-.226-.6-.737-1.016-.626-.506.138-.552.878-.424,1.272a7.161,7.161,0,0,0,1.127,1.872,4.669,4.669,0,0,0,1.1,1.376c.722.47,1.223.068,1.952-.34.489-.275,1.793-.335,1.522-1.346-.554-2.1.363-3.8.857-5.77a25.606,25.606,0,0,0,.637-5.029,19.813,19.813,0,0,0-.2-3.55,8.369,8.369,0,0,1,.243-3.339.9.9,0,0,1,.194-.4c1.082-.817,1.6-1.1,2.493-1.7,1.168-.77,2.484-1.329,3.588-1.972.746-.433,1.488-.954,2.274-1.314.339-.167,1.567-.757,1.883-.564a.761.761,0,0,1,.47.607,11.551,11.551,0,0,0,.446,1.373,24.711,24.711,0,0,0,1.031,2.489c.166.355.555.725.555,1.152a1.636,1.636,0,0,1-.367.883,2.251,2.251,0,0,1-.677.748c-.675.385-1.614,1.4-1.471,2.157a5.744,5.744,0,0,1-.737,3.9,11.229,11.229,0,0,1-2.565,2.68,9.607,9.607,0,0,1-2.462,1.7c-.743.367-1.522.666-2.314.968-.257.1-.548.213-.82.325a.9.9,0,0,0-.2,1.113,4.143,4.143,0,0,0,2.3,1.5,3.271,3.271,0,0,0,2.875.113,5.748,5.748,0,0,0,1.3-1.423,18.1,18.1,0,0,0,1.314-1.963,44.93,44.93,0,0,0,2.105-4.078,30.717,30.717,0,0,0,1.792-4.29c.223-.752.345-2.065,1.451-1.86.913.162,1.63,1.972,2.284,2.883,0,0,.834,1.28.3,1.645a20.978,20.978,0,0,0-1.726,2.007,3.238,3.238,0,0,0-.754,2.884c.089.573.177,1.384.792,1.643.822.367,1.456-.469,1.818-1.07a10.368,10.368,0,0,0,1.232-2.4c.182-.6,1.01.741,1.01.741a68.319,68.319,0,0,0,5.327,5.648c1.549,1.166,2.927,3.4,5.064,3.566a2.638,2.638,0,0,0,1.034-.31,12.148,12.148,0,0,0-.284-3.15,5.87,5.87,0,0,0-.442-1.358,9.836,9.836,0,0,1-.281-1.389c-.135-.849.181-1.71.06-2.563-.074-.462-.405-1.561-.8-.648a8.552,8.552,0,0,0-.53,2.066c-.053.346-.17.75-.217,1.137a1.927,1.927,0,0,0,.11,1.165c.107.222.225.393.022.565a.532.532,0,0,1-.718-.046,9.659,9.659,0,0,1-1.43-1.039A42.671,42.671,0,0,1,503.6,234c-1.021-1.1-2.38-2.011-1.664-3.73.251-.616.675-1.142.977-1.732.58-1.111,1.259-2.218,1.764-3.344.188-.424.491-1.625-.395-1.211a7.607,7.607,0,0,0-1.583,1.142,6.6,6.6,0,0,0-1.683,1.967C500.858,227.388,500.271,228.608,499.766,228.293Zm-6.637-11.539a25.631,25.631,0,0,0,2.93-1.711,1.293,1.293,0,0,1,.588,1.767,4.047,4.047,0,0,1-1.556,1.619,1.257,1.257,0,0,1-1.039.25c-.362-.143-.429-.594-.539-.913C493.487,217.681,493.1,216.774,493.129,216.755Z" transform="translate(-474.125 -197.956)"/></g><path class="b" d="M582.32,221.866a14.223,14.223,0,0,1,2-.727,19.449,19.449,0,0,0,3.5-1.22c1.34-.758-1.187-1.849-1.649-2.387-.484-.58-.461-1.3-.8-1.91-.231-.4-.914-1.785-1.3-1.794a4.911,4.911,0,0,0-1.177,1.624c-.03.12-.193,1.1-.193,1.1-.181.791-.344,1.608-.525,2.408-.123.6-.3,1.17-.471,1.741-.086.281-.465,1.093-.23,1.36.175.211.442.014.622-.08A.932.932,0,0,1,582.32,221.866Zm.287,19.363,0,0a21.157,21.157,0,0,0,4.577-1.774,20.706,20.706,0,0,0,2.806-1.343,5.065,5.065,0,0,0,1.518-1.187c.737-.943-1.01-2.259-1.663-2.691a7.865,7.865,0,0,0-1.287-.718,19.005,19.005,0,0,0-3.109-1.039,15.613,15.613,0,0,1-1.931-.59,10.221,10.221,0,0,0-3.472-.356c-.885.025-1.245.57-1.512,1.329a16.4,16.4,0,0,1-1.427,2.849c-.544.954-1.094,1.912-1.7,2.812a7.249,7.249,0,0,1-3.991,3.236c-.708.215-2.494.429-3.137-.041.182.134,1.622-.879,1.807-1.021a11.634,11.634,0,0,0,1.614-1.379,21.533,21.533,0,0,0,2.54-3.314c.353-.549.7-1.1,1.061-1.658.139-.208,1.89-2.9.684-2.537.394-.449,1.083-.542,1.379-1.14.28-.575,1.312-2.847.878-3.307-.3-.316-1.359.328-1.626.46-.77.373-1.485.835-2.278,1.163a7.109,7.109,0,0,1-2.528.538,6.259,6.259,0,0,1-1.448-.146,8.261,8.261,0,0,1-1.792-.757,7.946,7.946,0,0,1-1.3-.847c-.906-.749-2-1.86-1.291-3.09.046-.08.292-.431.413-.217.208.408-.458.742-.127,1.068.161.162.306.346.473.5.353.349.857.217,1.263.132.626-.119,1.252-.205,1.885-.354q1.884-.467,3.763-1.014c.7-.2,1.414-.415,2.12-.622.815-.23,1.622-.47,2.413-.751a1.882,1.882,0,0,0,.966-.505c.628-.81.566-2.065.684-3.035a30.431,30.431,0,0,1,1.5-7.315,8.686,8.686,0,0,1,.9-1.784c1.416-2.1,2.44.28,3.18,1.522,0,0,2.463,5.567,6.641,6.9.344.106.766.449.6.793-.1.215-.7.266-.9.308a5.168,5.168,0,0,0-1.082.3,15.727,15.727,0,0,0-1.775,1.224c-.663.454-1.335.906-2.027,1.322-.4.243-.8.472-1.2.687-1,.521-2.095.813-3.077,1.369-.1.057-.209.114-.3.17-.848.49-1.833.676-2.087,1.761-.187.756-.333,1.516-.5,2.277-.054.245-.114.5-.164.73-.118,1.374.885,1.014,2.066.931a17.922,17.922,0,0,1,7.34,1.411c1.635.8,4.043,2.034,4.94,3.718.508.981.989,2.153.154,2.962,0,0-3.2,2.569-13.743,3.529a4.9,4.9,0,0,1,2.189-2.99c.318.347-1.155,1.758.2,1.52" transform="translate(-405.418 -198.389)"/><path class="b" d="M552.365,227.491c.142-1.922-.538-3.913-2.556-4.368a7.836,7.836,0,0,0-2.2-.243,1.129,1.129,0,0,0-.748.527c-1.494,2.3-3.276,5.193-4.813,7.463-.28.415-.569.816-.872,1.215-.208.274-.433.545-.655.806a13.091,13.091,0,0,0-1.773,2.542,3.347,3.347,0,0,0-.428,1.458c0,1.037,2.828,2.2,3.587,2.263a9.937,9.937,0,0,0,7.234-2.226c2.242-1.967,2.892-5.18,3.176-8.032C552.365,228.433,552.321,227.963,552.365,227.491Zm-18.292,16.052c-.362.027-.727-.4-1.2-.935a2.423,2.423,0,0,1-.631-1.5c-.074-1.132,1.1-2.552,1.7-3.436,2.319-3.4,4.735-6.427,7.364-9.6a2.724,2.724,0,0,0,.779-1.448c.043-.822-1.529-1.133-1.529-1.133a2.545,2.545,0,0,0-1.428-.065,18.131,18.131,0,0,0-5.006,2.721,20.046,20.046,0,0,0-4.583,3.9c-.455.559-.846,1.171-1.259,1.76a12.239,12.239,0,0,1-2.432,2.968c-.516.4-1.385,1.125-2.067.8a5.668,5.668,0,0,1-1.072-.753,2.953,2.953,0,0,1-.888-1.09c-.027-.065-.093-.141-.072-.215a16.419,16.419,0,0,1,1.231-3.4c.736-1.72,4.894-8.9,4.894-8.9a2.924,2.924,0,0,0,.5-2.224c-.13-.566-1.088-1.073-1.543-1.315-.5-.283-2.522-.988-1.279-1.794a2.457,2.457,0,0,1,1.878-.228c1.292.115,2.548.761,3.956.753.69-.011,1.587-.592,2.028-.564.415.038.349.044.406.5a2.814,2.814,0,0,1,.078.979,1.9,1.9,0,0,1-.436.888c-.422.513-1.032.847-1.459,1.371-.446.556-.893,1.108-1.328,1.668-1.2,1.541-2.4,3.089-3.515,4.682-.538.785-1.076,1.57-1.538,2.413-.115.2-1.4,2.569-1.193,2.788.231.233.71-.274.854-.45,2.439-3.146,6.388-5.154,9.317-6.582.56-.272,1.138-.525,1.72-.773,1.753-.758,3.55-1.416,5.319-2.152l1.461-.695a1.231,1.231,0,0,0,.715-.688s1.142-2.425,1.3-2.658c0,0,.483-.646.861.271,0,0,.478,1.144.729,2,0,0,2.692-.686,4.43.249a5.34,5.34,0,0,1,1.549,1.5,10.319,10.319,0,0,1,2.07,6.209,18.877,18.877,0,0,1-.185,4.958,10.78,10.78,0,0,1-5.89,6.725,14.332,14.332,0,0,1-3.678,1.156s-5.543.986-6.988-1.782a4.836,4.836,0,0,1-.214-2.264,47.623,47.623,0,0,1-2.768,4.62A1.82,1.82,0,0,1,534.074,243.543Z" transform="translate(-399.82 -199.358)"/><g transform="translate(0 7.1)"><path class="b" d="M415.617,208.649a1.284,1.284,0,0,1,.326,1.549,12.625,12.625,0,0,0-.2,2.442,92.772,92.772,0,0,0-.257,14.028c.136,2.443.2,4.879.331,7.316.028.583.065,1.152.115,1.732a46.5,46.5,0,0,1,.209,5.36c-.023.923-.761,6.959-2.528,6.4a6.181,6.181,0,0,1-1.427-1.538c-.039-.048-.078-.094-.112-.141-1.07-1.266-2.967-1.149-4.406-1.852-1.039-.516-3.39-1.814-3.067-3.3.139-.587,7.435,1.908,8.363-.921.562-1.713-.005-3.852-.1-5.623-.1-2.029-.164-4.064-.247-6.1-.116-2.033-.3-4.07-.345-6.12-.057-2.319-.051-4.515-.039-6.857.025-2.251.384-3.888-.138-5.7,0,0-.709-1.878-1.676-2.291a2.148,2.148,0,0,0-1.526-.093c-.732.267-4.9.939-4.9.939a45.639,45.639,0,0,0-8.214,2.61c-.188.061-.374.145-.573.226a15.156,15.156,0,0,0-2.412,1.094,3.959,3.959,0,0,0-.879.772c-.092.127-.566,1.028-.632,1.046a8.794,8.794,0,0,1-3.762-.529c-.643-.245-1.293-.714-.743-1.387a9.188,9.188,0,0,1,2.626-1.4,73.052,73.052,0,0,1,13.04-3.863c2.006-.439,4-.788,6.033-1.052a8.783,8.783,0,0,0,2.23-.4c.746-.326,1.083-.126,1.642.436Z" transform="translate(-382.622 -204.838)"/><path class="b" d="M391.552,226.335c.669-1.087,2.813-5.776,2.813-5.776a6.4,6.4,0,0,1,1.334-2.311,11.451,11.451,0,0,1,1.373-1.039c.388-.369.857-.959,1.191-.336a22.448,22.448,0,0,0,1.3,3.1c1.03,2.141,2.193,4.3,3.008,6.518-.7.706-1.781,1.177-2.523,2.015-1.253,1.43-9.147,7.385-9.147,7.385l-.95.669c-.479.337-.21.949.125,1.278a3.672,3.672,0,0,0,.742.6,3.237,3.237,0,0,0,.692.305c.852-.7,1.359-.985,2-1.515a34.061,34.061,0,0,0,2.807-2.921c1.828-1.96,3.647-3.92,5.495-5.874.335-.36.815-.854,1.406-.649a3.074,3.074,0,0,1,1.433,2.053c.061,1.693-1.7,4.263-3.059,5.519-.63.581-2.04,2.029-2.678,2.5a5.118,5.118,0,0,1-1.486.594c-1.307.385-2.562.861-3.836,1.339a17.029,17.029,0,0,0-4.891,2.285,15.181,15.181,0,0,0-1.269.974c-.214.368.856.933,1.059.971.765.121.879.5,1.3-.02.445-.561,1.417-.426,2.017-.789.712-.437,1.231-1.067,1.949-1.535a10.486,10.486,0,0,1,2.274-1.231c1.4-.414,2.759-.877,4.15-1.262a39.705,39.705,0,0,1,4.468-.856c1.169-.16,2.307-.4,3.468-.537.85-.086,2.054-.293,2.778.268a9.385,9.385,0,0,0-3.589-5.977c-.735-.88-.464-1.484-.464-1.484a6.05,6.05,0,0,1,.867-2.159c.325-.583.754-1.076,1.1-1.634a14.268,14.268,0,0,0,1.259-2.282c.142-.367.467-1.014.343-1.413-.056-.206-.266-.231-.449-.277a2.721,2.721,0,0,1-1.315-.959c-.265-.36-.517-.794-.978-.928-1.38-.689-.469,1.068-.36,1.561a5.3,5.3,0,0,1,.075,1.914,7.028,7.028,0,0,1-.616,1.914c-.22.5-.34,1.027-.567,1.51a2.213,2.213,0,0,1-.388.709c-.338.271-.637-.3-.637-.3-1.7-3.455-3.375-6.937-4.98-10.451a14.815,14.815,0,0,1-.633-1.4c-.29-.9.616-.978.957-1.6.43-.785-.483-.891-1.07-.785-.807.143-.726-.9-1.561-1.081a4.7,4.7,0,0,0-2.012.178c0,.34.307.439.5.621.493.426.223,1.184.027,1.686-.237.631-.466.717-1.078.97-1.961.819-3.85,1.851-5.834,2.629,0,0-1.658.74-1.049,1.263a3.379,3.379,0,0,0,1.993.711,2.5,2.5,0,0,0,1.479-.342c.25-.128.506-.267.736-.406.1-.069.621-.327.621-.434a3.8,3.8,0,0,1-.065.413,16.429,16.429,0,0,1-.814,1.83c-.709,1.571-1.367,2.36-2.192,3.873a20.078,20.078,0,0,0-1.939,4.451,2.369,2.369,0,0,1-1.33,1.616s.017.684,1.05,1.423c.094.063.549.609.71.609.439,0,.915-.888,1.247-1.121,1.8-1.368,3.966-2.521,5.208-4.471a3.458,3.458,0,0,0,.561-1.432c-.455-.253-1.819.975-2.039,1.191-1.329.972-3.026,2.61-3.62,1.967-.4-.435.323-1.525.522-1.937Zm10.312,10.677c-.126.036-.687.242-.616.019.013-.07.14-.122.2-.169a10.172,10.172,0,0,0,1.671-1.853c.867-.868,2.515-3.2,3.569-1.472a15.415,15.415,0,0,1,1.409,2.319c.2.52-1.094.555-1.33.575-.165.019-.331.038-.517.045-.643.057-1.286.1-1.939.182a17.286,17.286,0,0,0-2.181.3Z" transform="translate(-382.666 -205.863)"/><path class="b" d="M408.586,216.5a1.037,1.037,0,0,0,1.825.4c1.349-2.075-1.605-3.358-3.5-3.22-.065,0,0,.249.011.272a1.732,1.732,0,0,0,.583.722,3.274,3.274,0,0,1,.655.7A3.782,3.782,0,0,1,408.586,216.5Z" transform="translate(-385.206 -205.962)"/><path class="b" d="M398.818,227.028c-.319.152-.406.073-.406.073-.2-.206-.12-.564-.134-.827,0-.37-.164-.472-.494-.588a16.436,16.436,0,0,1-1.481-.8c-.523-.262.9-.88,1.074-.958a2.046,2.046,0,0,1,1.37.233c.647.3,2.493.614,1.849,1.681-.044.08-.115.315-.214.36-.139.038-.252-.077-.4-.045a1.643,1.643,0,0,0-.378.285A4.482,4.482,0,0,1,398.818,227.028Z" transform="translate(-383.844 -207.26)"/><path class="b" d="M385.452,242.6c.111.624.219,1.292.334,1.922.039.168.072.328.1.489a4.562,4.562,0,0,1,.146,1.409,4.257,4.257,0,0,1-1.438,2.472,1.538,1.538,0,0,1-1.274-1.118,21.257,21.257,0,0,0-1.276-3.186,2.757,2.757,0,0,0,.682-1.313,18.218,18.218,0,0,0,.3-3.176,60.3,60.3,0,0,0-.071-7.391c-.078-1.288.619-2.4.719-3.634.11-1.343.85-1.248,1.037-.014,0,0-.026.292.693,1.218a2.516,2.516,0,0,1,.643,2.289c-.163.5.023.743.351,1.08-.731,0-.984.949-1.087,1.478a29.962,29.962,0,0,0-.225,3.7A16.752,16.752,0,0,0,385.452,242.6Z" transform="translate(-382.045 -207.798)"/></g><g transform="translate(191.919)"><path class="b" d="M613.68,221.642a7.17,7.17,0,0,0-.2-2.064c-.148-.978-.3-1.945-.379-2.931a10.075,10.075,0,0,0-.471-2.883,5.044,5.044,0,0,0-1.513-2.209s-.9-.389-.887,2.1a15.673,15.673,0,0,0,.366,1.868c.082.789.282,1.61.385,2.4.106.806.177,1.6.258,2.4a5.282,5.282,0,0,0,.254,1.616c.187.507.461.978.676,1.456a4.676,4.676,0,0,1,.258.758c.077.376-.038.778.175,1.116a.87.87,0,0,0,.994.291.95.95,0,0,0,.593-.372C613.2,224.837,613.518,222.422,613.68,221.642Z" transform="translate(-602.996 -198.59)"/><path class="b" d="M604.167,226.24a9.283,9.283,0,0,1,.136,2.251,8.423,8.423,0,0,1-.647,1.832c-.259.592-.484,1.208-.741,1.8-.15.321-.286.633-.432.938a3.356,3.356,0,0,0-.54,1.633c.043.781.768.989,1.409.765a4.649,4.649,0,0,0,1.539-1.053,6.613,6.613,0,0,0,.969-1.279c.451-.757-.122-.271-.2-.946-.065-.509.408-1.111.4-1.683C606.035,227.164,604.167,226.24,604.167,226.24Z" transform="translate(-601.942 -200.461)"/><path class="b" d="M634.111,205.417c.17-.384.362-.5.164-.958a4.684,4.684,0,0,0-2.85-2.5c-.094-.019-.185-.089-.306-.108-1.23.084-4.681,2.235-4.681,2.235-.648.4-.775,1.217-1.06,1.84-.333.747-.806.832-1.376,1.386-.347.34-.243.744-.91.744-.867,0-1.054-.866-1.086-1.454a8.678,8.678,0,0,1,1.036-4.359c.613-1.072,1.824-1.231,2.843-1.739.6-.305,1.219-.619,1.816-.94a5.846,5.846,0,0,0,1.265-.678,1.641,1.641,0,0,0,.45-1.187c.044-.975-.44-1-.44-1a6.379,6.379,0,0,1-1.193.843c-.3.178-.6.352-.9.525-.419.235-3.148,1.78-3.148.553a3.737,3.737,0,0,0-.95-1.491c-.4-.31-.553-.219-.974-.031-.741.342-.485.932-.428,1.6a32.648,32.648,0,0,1-.121,4.5,37.574,37.574,0,0,1-.441,4.059c-.165.879-.626,1.833.373,2.369.583.306.36.505.15,1.04a16.491,16.491,0,0,0-.861,5.907,5.226,5.226,0,0,0,.327,2.265,2.544,2.544,0,0,1,.384,1.658c-.071.236-1.059.593-1.263.688-.516.228-.934.257-1.209-.3-.559-1.108.917-2.692-.511-3.478-.226-.133-.174-1.491-.169-1.819.023-.834.01-1.686-.017-2.521-.072-2.006.026-4.221-.781-6.081-.265-.609-.637-1.276-1.379-1.087-.183.044-.3.514-.3.815,0,.49-.03.976-.03,1.465-.01,2.4-.03,3.642.043,6.065a19.986,19.986,0,0,0,.641,4.834c.288.82.964,2.023.367,2.852-.38.514-1.4.758-1.665,1.345.436.3.991-.039,1.506-.067a1.919,1.919,0,0,1,.935.2c.1.029.434.268.576.2a1.684,1.684,0,0,0,.269-.81s.028-.491,1.457-.827c.862-.191,1.729-.367,2.605-.522a19.089,19.089,0,0,1,4.9-.176c.565.083.8.495,1.127.918a3.5,3.5,0,0,0,1.417,1.263s.7.306,1.412-.6a12.99,12.99,0,0,0,.886-2.274,1.516,1.516,0,0,1,.385-.766,1.5,1.5,0,0,1,.96-.182c1.039,0,2.788-.469,3.386.751a1.357,1.357,0,0,1-.215,1.444c-1.763,1.933-4,3.333-5.918,5.082a.872.872,0,0,1-.444.243,3.557,3.557,0,0,1-.8-.094,2.752,2.752,0,0,0-.814.157,40.921,40.921,0,0,0-6.36,2.465,3.257,3.257,0,0,0-.858.7c-.161.281-.313.637.071.786a2.771,2.771,0,0,0,1.079.162,2.481,2.481,0,0,0,.619-.169,17.049,17.049,0,0,0,3-1.173c.545-.31,1.037.049.809.569a16.2,16.2,0,0,1-1.6,2.671c-.5.7-.907,1.2-1.349,1.943-.335.573,0,1.353.19,1.908.194.572.344,1.165.5,1.746.1.3.1.636-.131.687-.149.033-.917.148-1.153.167a8.93,8.93,0,0,0-4.133,1.83,2.886,2.886,0,0,0-1.19,3.054c.064.582.364,2.573,1.092,2.7,0-.476-.353-.8-.346-1.258a4.623,4.623,0,0,1,1.144-3.061,7.6,7.6,0,0,1,4.62-1.8c.532-.061.977-.152,1.512-.238.909-.134.646,2.006.626,2.433-.2,2.425-2.188,6.356-5.3,5.092-.341-.138-.177-.54-.6-.581a10.851,10.851,0,0,0-1.359.017,4.39,4.39,0,0,0,2.466,1.427,6.738,6.738,0,0,0,7.35-4.9c.193-.851-.087-1.794.165-2.622a1.542,1.542,0,0,1,1.942-1.1,40.388,40.388,0,0,1,6.9,1.73,4.752,4.752,0,0,0-1.3-2.547,2.624,2.624,0,0,0-1.353-.655,6.191,6.191,0,0,0-1.77.437,9.168,9.168,0,0,1-3.333-.072.989.989,0,0,1-.842-.756c-.307-.84-.12-1.488-.9-2.06a3.323,3.323,0,0,0-1.484-.551c-.693-.1-2.748-.051-1.835-1.28.4-.6.784-1.231,1.17-1.831.875-1.411,1.629-3.462,3.425-3.879.377-.079,1.02-.244.84-.753-.108-.3-.423-.6-.408-.947,0-.228.408-.378.567-.463h0a13.413,13.413,0,0,1,1.643-.9c.49-.269.966-.541,1.438-.827.337-.207.671-.422,1.018-.629,1.252-.843,2.5-1.766,3.83-2.5.66-.342,1.463.1,2.006-.4.224-.193.473-.463.688-.676.465-.471-.552-1.262-.552-1.262a11.24,11.24,0,0,0-4.258-2.027c-.292-.046-.567.235-.757.4a4.7,4.7,0,0,1-2.8.731c-1.08-.365-.814-1.894-.642-2.921.3-1.807.573-3.616.814-5.429.123-.9.241-1.8.352-2.7.053-.4.091-.794.134-1.184A5.866,5.866,0,0,1,634.111,205.417Zm-10.656,11.494-1.037.71s-.325.316-.472-.564c0,0-.264-4.906-.238-6.175,0,0,.173-.957.821-1,0,0,1.027-.348,1.135.477,0,0-.527,3.876.112,5.491C623.775,215.846,623.967,216.65,623.454,216.911ZM629.74,221a7.793,7.793,0,0,1-1.525.065c-.585-.141-.381-.466-.144-.676.292-.272.488-.207,1.038-.509,0,0,.947-.055.967.385A.66.66,0,0,1,629.74,221Zm.486-3.306c-.116.5-.387,1.512-.979,1.657-.557.146-1.093-.442-1.648-.156a9.447,9.447,0,0,1-1.06.617,1.162,1.162,0,0,1-1.2-.469,1.6,1.6,0,0,1-.23-1.226,10.556,10.556,0,0,1,.374-1.355,8.409,8.409,0,0,0,.373-1.417,4.01,4.01,0,0,0,.054-.715c0-.261-.063-.518-.043-.772.114-1.109.566-2.591,1.977-2.045.314.113.886.413.869.821,0,1.092-1.445,2.063-.609,3.33C628.786,217,630.57,216.18,630.226,217.691Zm1.394-6.376a12.4,12.4,0,0,1-.429,3.006c-.373,1.05-1.871.555-1.851-.4a12.83,12.83,0,0,1,.34-1.866,3.126,3.126,0,0,1,1.433-1.535C631.461,210.424,631.6,210.782,631.62,211.315Zm.43-3.851c-.2,1.606-.648,2.258-2.325,2.442-.626.066-1.424-.272-1.923.243-.172.174-.184.517-.385.639-.154.1-.97-.2-.957-.4.1-1.719-1.171-1.517-1.171-1.517-.3.051-.323-.319-.244-.724a4.871,4.871,0,0,1,.252-.953,8.044,8.044,0,0,1,.382-1.061c.277-.668.745-.516.745-.516a1.024,1.024,0,0,0,.762-.113c.593-.358,1.248-.621,1.852-.971.544-.311,1.142-1,1.83-.783C631.9,204.507,632.18,206.325,632.05,207.464Z" transform="translate(-603.594 -196.703)"/></g><g transform="translate(39.862 15.645)"><path class="b" d="M443.917,219.881c.786.7,1.725,1.246,2.683.591.6-.409.483-1.431.735-2a2.407,2.407,0,0,0-1.028-3.024,4.662,4.662,0,0,0-3.619-.741c-.813.1-2.379.291-2.744,1.187-.34.785,1.436,1.7,1.921,2.033a8.61,8.61,0,0,1,1.07.944C443.209,219.165,443.54,219.537,443.917,219.881Z" transform="translate(-429.268 -214.629)"/><path class="b" d="M445.74,226.306c.857-.207,1.718-.4,2.576-.556,2.177-.424,4.379-.9,6.576-1.164,0,0,1.663-.066,2.007-.941a7,7,0,0,0-.868-1.019c-.727-.705-3.413-.352-3.413-.352-1.444-.1-8.215,2.113-8.215,2.113-2.741.909-5.55,1.65-8.276,2.62a12.744,12.744,0,0,0-3.713,1.5s-.65.525.887.724a4.649,4.649,0,0,0,2.483.092C439.113,228.258,442.37,227.13,445.74,226.306Z" transform="translate(-428.298 -215.59)"/><path class="b" d="M452.7,238.914c1.584-.161,3.171-.283,4.758-.53a8.615,8.615,0,0,1,4.4.637,3.567,3.567,0,0,1,1.931,2.344c-.186.619-.94.689-1.485.653-1.293-.1-2.542-.2-3.86-.212a96.821,96.821,0,0,0-18.65,1.98c-2.852.669-6.812,1.494-6.812,1.494a22.914,22.914,0,0,1-5.265-1.025s1.445-1.2,8.776-2.309c2.032-.394,4.037-.888,6.052-1.39.382-.092.866-.293,1.087-.347,2.7-.722,5.651-7.07,5.651-7.07,1.2-2.274.385-2.878.385-2.878-.743-1-.582-1.387-.582-1.387-.043-.635,1.842-.3,2.128-.225,0,0,3.283,1.125,1.971,3.456a25.511,25.511,0,0,1-6.513,7.621s-.346.366,1.03,0A31.625,31.625,0,0,1,452.7,238.914Z" transform="translate(-427.718 -216.393)"/><path class="b" d="M441.913,233.985a10.825,10.825,0,0,1,1.252,2.047,5.033,5.033,0,0,1,.406,1.206,1.565,1.565,0,0,1-.422,1.608,3.741,3.741,0,0,1-1.191,1.175,1.6,1.6,0,0,1-1.281.061,1.726,1.726,0,0,1-.584-1.137c-.028-.108-.038-.214-.066-.314a19.406,19.406,0,0,1-.346-2.332c-.131-.87-1.49-3.269-.6-3.983.8-.669,2.24.927,2.655,1.438C441.786,233.829,441.852,233.9,441.913,233.985Z" transform="translate(-429.125 -216.859)"/></g></g><g transform="translate(284.954 196.371)"><g transform="translate(22.985 69.54)"><path class="c" d="M313.529,282.674H312.2v-4.96h-.909v-.786a1.625,1.625,0,0,0,1.365-.768h.874Z" transform="translate(-311.29 -276.062)"/><path class="c" d="M321.09,279.2a4.857,4.857,0,0,1-.69,2.429,2.382,2.382,0,0,1-2.137,1.116,5.741,5.741,0,0,1-1.085-.134v-1.121a5.388,5.388,0,0,0,1.085.16,1.185,1.185,0,0,0,.992-.439,1.769,1.769,0,0,0,.335-1.055,1.176,1.176,0,0,1-.544.418,1.822,1.822,0,0,1-.688.155,1.986,1.986,0,0,1-1.576-.614,2.29,2.29,0,0,1-.54-1.631,2.462,2.462,0,0,1,.634-1.779,2.731,2.731,0,0,1,3.579.027,3.139,3.139,0,0,1,.635,1.895v.572Zm-1.427-.811c0-.888-.327-1.338-.977-1.338s-.973.449-.973,1.338.324,1.343.973,1.343a.848.848,0,0,0,.767-.438A1.8,1.8,0,0,0,319.663,278.391Z" transform="translate(-311.92 -276.049)"/><path class="c" d="M327.264,280.77a1.813,1.813,0,0,1-.676,1.492,2.462,2.462,0,0,1-1.6.506,2.4,2.4,0,0,1-2.315-1.2l.9-.549a1.094,1.094,0,0,0,.53.551,1.578,1.578,0,0,0,.761.184.988.988,0,0,0,.769-.305,1.145,1.145,0,0,0,.254-.8.939.939,0,0,0-.268-.71,1.068,1.068,0,0,0-.744-.242h-.655v-.923h.692c.606,0,.905-.283.905-.845,0-.6-.256-.895-.766-.895a.877.877,0,0,0-.875.484H323.01a1.672,1.672,0,0,1,.736-1.112,2.272,2.272,0,0,1,1.3-.362,2.5,2.5,0,0,1,1.466.394,1.485,1.485,0,0,1,.644,1.3,1.524,1.524,0,0,1-.248.893,1.277,1.277,0,0,1-.754.524A1.578,1.578,0,0,1,327.264,280.77Z" transform="translate(-312.738 -276.048)"/><path class="c" d="M332.654,282.674h-1.343v-4.96h-.905v-.786a1.636,1.636,0,0,0,1.363-.768h.885Z" transform="translate(-313.722 -276.062)"/></g><g transform="translate(20.968 28.729)"><path class="c" d="M314.97,244.135c-1.449,1.945-3.986,2.277-3.769,3,.514,1.739,6.156-.746,7.981-5.661.529-1.417,1.1-1.177,1.1-1.177s1.673.158-1.565,4.938c-.71,1.046-.14,1.341-.14,1.341s.737.437,1.735-.84c2.518-3.228,1.981-5.571,2.824-5.208,1.581.676-1.385,5.648-.335,6.093.768.328,1.49-.538,2.145-2.857.6-2.087.226-3.309.949-3.277,1.4.062-.091,6.249,2.549,6.193,1.087-.023-1.057-6,.6-6.374,0,0,.548-.172.746,1.474a12.526,12.526,0,0,0,.72,2.955c.285.786,1.389,2.955,2.489,2.393.905-.46-1.536-2.994-1.257-7.354,0-.014.167-1.964-1.635-2.164-.983-.112-2.685.554-2.427-.4.2-.744,3.488-.8,3.138-2.507-.126-.649-1.19-.185-2.059.19-.9.387-1.938.335-2.024-.127s.541-.64,1.332-.9c.892-.3,1.749-.819,1.567-1.614-.242-1.135-3.619,1.034-3.626-.469.127-.7,2.626-.688,2.1-2.1-.445-1.182-2.6.789-6.5-.177-1.934-.473-1.5,1.16-1.5,1.16.974,1.516,3.906.1,3.54,1.515-.317,1.188-3.14.066-3.352,1.362-.26,1.606,3.718.321,4.141,1.664.9,2.874-.548,2.958-.977,2.892-1.005-.149-.129-2.176-1.481-2.164-1.145.013-.072,2.424-1.609,2.251-1.245-.138.22-1.966-1.386-2.547-.943-.328-1.945-.672-2.077-1.173-.186-.7,1.426-1.146,1.313-2.464-.127-1.36-5.628-3.472-6.5-2.042-.741,1.205,1.053,1.528,1.053,1.528,1.7.384,3.392.943,1.906,2.183-2.234,1.872,2.675,2.548,2.635,3.493-.032.752-1.2.418-1.3.383-.984-.358-1.693.147-1.742.59-.093.766-.525.671-1.1.656-.48-.012-1.895-.62-.292-1.293.667-.279.674-.814.566-1.013-.381-.663-3.076-.741-3.076-.741s-.978-.1-1.2.576c-.189.587.581.936.581.936,1.249.789.1,1.436-.124,1.536-.36.166-.739.319-.628.89.084.443.476.69,1.169.737.019,0,2.295.134,2.3.134s.766.029.456.814a5.428,5.428,0,0,1-2.376,2.724c-.932.567-.077,1.163.681,1.033,0,0,1.862.13,4.154-4.229.486-.923,1.092-.6,1.092-.6S317.661,240.514,314.97,244.135Z" transform="translate(-308.979 -229.288)"/></g><path class="c" d="M346.589,216.629c-4.048-4.551-6.839-4.366-6.839-4.366-3.276-.389-8.581,4.641-10.936,7.075l-.353-1.88c7.916-6.924,6.605-10.613,6.605-10.613-3.338-.154-7.227,6.073-9.09,9.44a11.126,11.126,0,0,0-1.688-.46c7.921-9.929,2-14.55,2-14.55-1.881-1.9-8.605-4.806-8.856-4.9a.26.26,0,0,0-.035.011l-.026-.011c-.251.1-5.858,2.312-8.865,4.9,0,0-5.781,4.57,2.009,14.55a11.328,11.328,0,0,0-1.7.46c-1.849-3.367-5.739-9.593-9.079-9.44,0,0-1.314,3.689,6.6,10.613l-.344,1.88c-2.352-2.434-7.666-7.464-10.936-7.075,0,0-2.793-.185-6.842,4.366a28.661,28.661,0,0,1-3.257,3.516v.01a28.645,28.645,0,0,1,.938,4.695c1.076,6,3.556,7.3,3.556,7.3,2.674,2.115,10.943.223,14.326-.673l-.456,2.489c-13.282.581-13.845,5.016-13.845,5.016s3.033,3.128,13.437-2.734l-.458,2.5c-.14.048-5.858,2.143-7.989,3.858-3.149,2.541-1.148,7.512.435,10.318a52.605,52.605,0,0,1,2.182,4.808h.006a28.587,28.587,0,0,1,4.749.647c6.02.944,8.006-.15,8.006-.15,4.557-1.384,4.064-7.525,3.545-10.445.853-.091,1.708-.155,2.546-.172-.62,2.817-1.473,8.715,1.456,11.582h.029c2.931-2.867,2.077-8.765,1.451-11.582.843.017,1.695.081,2.555.172-.52,2.92-1.015,9.061,3.535,10.445,0,0,1.986,1.094,8.009.15a28.662,28.662,0,0,1,4.745-.647h.018a51.562,51.562,0,0,1,2.176-4.808c1.58-2.806,3.619-7.7.436-10.318-2.13-1.74-7.851-3.81-7.99-3.858l-.448-2.5c10.4,5.862,13.424,2.734,13.424,2.734s-.559-4.435-13.846-5.016l-.451-2.489c3.379.9,11.647,2.788,14.332.673,0,0,2.48-1.3,3.549-7.3a27.8,27.8,0,0,1,.941-4.695v-.01A28.847,28.847,0,0,1,346.589,216.629Zm-25.527.707.013.062a6.453,6.453,0,0,1-1.319.582l-.782-9.649a5.012,5.012,0,0,0,1.122-.442Zm-3.683-11.822c2.217-.012,2.589,1.267,2.589,1.267a4.969,4.969,0,0,1-5.175,0S315.162,205.5,317.379,205.514Zm1.373,12.7a8.6,8.6,0,0,1-2.7,0l.771-9.71a9.742,9.742,0,0,0,1.15,0Zm-5.019-.877.973-9.447a5.061,5.061,0,0,0,1.122.442l-.779,9.649a6.174,6.174,0,0,1-1.317-.582Zm-2.02-.036a7.357,7.357,0,0,0,5.686,2.231,7.529,7.529,0,0,0,5.687-2.231,9.572,9.572,0,0,1,3.532,1.02c-1.759,2.016-5.291,3.327-9.219,3.413-3.928-.086-7.457-1.4-9.215-3.413A9.583,9.583,0,0,1,311.713,217.3Zm20.755,31.111a45.645,45.645,0,0,0-30.139,0l5.239-28.684c3.321,3.495,13.354,5.538,19.666,0Z" transform="translate(-284.954 -196.371)"/></g></g></g></svg>