<svg width="40" height="40" viewBox="0 -1 40 40" fill="none" xmlns="http://www.w3.org/2000/svg">
<path id="Vector" d="M15.3571 0C19.2975 0 23.0765 1.52617 25.8627 4.24277C28.649 6.95937 30.2143 10.6439 30.2143 14.4857C30.2143 17.8599 29.0216 20.9779 27.0356 23.4505C26.8238 23.7141 26.838 24.0973 27.0802 24.3334C27.1991 24.4494 27.3587 24.5143 27.5249 24.5143H28.1686C28.7474 24.5143 29.3034 24.7405 29.7179 25.1446L38.7423 33.9434C39.7058 34.8828 39.7058 36.4315 38.7423 37.3709C37.8128 38.2772 36.3301 38.2772 35.4005 37.3709L26.2731 28.4717C25.8701 28.0787 25.6429 27.5397 25.6429 26.9769V26.3716C25.6429 26.1958 25.5718 26.0273 25.4459 25.9046C25.207 25.6716 24.8318 25.6578 24.5668 25.8606C22.0285 27.804 18.8247 28.9714 15.3571 28.9714C11.4168 28.9714 7.63781 27.4453 4.85156 24.7287C2.0653 22.0121 0.5 18.3276 0.5 14.4857C0.5 10.6439 2.0653 6.95937 4.85156 4.24277C7.63781 1.52617 11.4168 0 15.3571 0ZM15.3571 4.45714C9.64286 4.45714 5.07143 8.91429 5.07143 14.4857C5.07143 20.0571 9.64286 24.5143 15.3571 24.5143C21.0714 24.5143 25.6429 20.0571 25.6429 14.4857C25.6429 8.91429 21.0714 4.45714 15.3571 4.45714Z" fill="white"/>
</svg>
